<svg xmlns="http://www.w3.org/2000/svg" enable-background="new 0 0 960 560" version="1.1" xml:space="preserve" viewBox="95.96 49.3 250 332.13">
<style type="text/css">
	.st0{fill:#2170FE;}
</style>
<g>
	<path fill-rule="evenodd" clip-rule="evenodd" class="st0" d="M 95.957 282.297 L 345.957 282.297 L 345.957 292.297 L 95.957 292.297 L 95.957 282.297 Z"/>
	<g>
		<path class="st0" d="M202.732,252.655l-7.05-20.358h-34.351l-7.2,20.358h-31.35l43.05-113.013h25.2l43.2,113.013H202.732z
			M179.183,179.575c-0.202,0.61-0.477,1.566-0.825,2.871c-0.352,1.305-0.626,2.306-0.825,3.001l-9.45,27.666h21.45l-9-27.666
			c-0.201-0.695-0.427-1.696-0.675-3.001C179.606,181.141,179.382,180.185,179.183,179.575z"/>
		<path class="st0" d="M237.98,252.655v-112.36h30.45v103.226c0,2.695-1.2,4.894-3.601,6.59c-2.399,1.696-5.2,2.545-8.399,2.545
			H237.98z"/>
		<path class="st0" d="M281.931,252.655v-112.36h30.45v103.226c0,2.695-1.2,4.894-3.601,6.59c-2.399,1.696-5.2,2.545-8.399,2.545
			H281.931z"/>
	</g>
	<g>
		<path class="st0" d="M184.564,343.135v7.211h-58.246v-7.211h24.361v-3.779c-11.762-0.84-18.551-4.551-18.551-10.852
			c0-7.07,8.609-10.992,23.313-10.992c14.771,0,23.381,3.922,23.381,10.992c0,6.371-6.859,10.08-18.9,10.852v3.779H184.564z
			 M142.209,374.008h36.965v6.932h-46.135v-16.941h35.354v-3.361h-35.424v-6.859h44.523v16.59h-35.283V374.008z M155.441,332.773
			 c9.381,0,13.791-1.26,13.791-4.27c0-2.871-4.41-4.201-13.791-4.201c-9.313,0-13.723,1.33-13.723,4.201
			 C141.719,331.514,146.129,332.773,155.441,332.773z"/>
		<path class="st0" d="M225.861,332.914c0,10.361,1.189,21.492,9.451,27.863l-5.602,6.65c-4.201-3.291-6.791-8.051-8.33-13.791
			c-1.541,5.951-4.271,11.061-8.752,14.49c-4.48-3.43-7.141-8.539-8.75-14.281c-1.541,5.461-3.99,10.082-7.912,13.232l-5.949-6.301
			c8.189-6.371,9.381-17.572,9.381-27.863v-10.852h8.68v10.852c0,7.422,0.631,15.893,4.551,22.473
			c3.852-6.512,4.48-14.912,4.48-22.473v-10.852h8.752V332.914z M246.373,316.953v64.477h-9.242v-64.477H246.373z"/>
		<path class="st0" d="M314.834,355.527h-24.783v25.902h-9.381v-25.902h-24.082v-7.422h40.604
			c1.611-8.191,1.75-14.49,1.75-20.021h-35.703v-7.422h44.734v5.811c0,6.021,0,12.602-1.609,21.633h8.471V355.527z"/>
	</g>
	<g>
		<polygon class="st0" points="95.957,139.296 220.957,49.298 95.957,49.298"/>
		<polygon class="st0" points="220.957,49.298 345.957,139.296 345.957,49.298"/>
	</g>
</g>
</svg>