<?xml version="1.0" encoding="utf-8"?>
<!-- Generator: Adobe Illustrator 16.0.0, SVG Export Plug-In . SVG Version: 6.00 Build 0)  -->
<!DOCTYPE svg PUBLIC "-//W3C//DTD SVG 1.1//EN" "http://www.w3.org/Graphics/SVG/1.1/DTD/svg11.dtd">
<svg version="1.1" id="레이어_1" xmlns="http://www.w3.org/2000/svg" xmlns:xlink="http://www.w3.org/1999/xlink" x="0px"
	 y="0px" width="39.99px" height="38.87px" viewBox="0 0 39.99 38.87" enable-background="new 0 0 39.99 38.87"
	 xml:space="preserve">
<g>
	<path fill-rule="evenodd" clip-rule="evenodd" fill="white" d="M-0.002,37.272h39.994v1.6H-0.002V37.272z"/>
	<g>
		<path fill="white" d="M17.08,32.53l-1.128-3.257h-5.495L9.305,32.53H4.289l6.888-18.08h4.031l6.911,18.08H17.08z M13.313,20.839
			c-0.033,0.098-0.076,0.251-0.133,0.459c-0.056,0.209-0.1,0.369-0.132,0.48l-1.512,4.426h3.432l-1.439-4.426
			c-0.032-0.111-0.068-0.271-0.108-0.48C13.38,21.09,13.344,20.937,13.313,20.839z"/>
		<path fill="white" d="M22.719,32.53V14.556h4.871v16.514c0,0.431-0.192,0.782-0.576,1.054s-0.832,0.407-1.344,0.407H22.719z"/>
		<path fill="white" d="M29.75,32.53V14.556h4.871v16.514c0,0.431-0.192,0.782-0.576,1.054s-0.832,0.407-1.344,0.407H29.75z"/>
	</g>
	<g>
		<polygon fill="white" points="-0.002,-0.002 -0.002,14.396 19.995,-0.002 		"/>
		<polygon fill="white" points="39.992,-0.002 19.995,-0.002 39.992,14.396 39.992,14.822 39.992,14.822 		"/>
	</g>
</g>
</svg>
