<svg xmlns="http://www.w3.org/2000/svg" enable-background="new 0 0 960 560" version="1.1" xml:space="preserve" viewBox="195.71 463.35 51.42 30.65">
<style type="text/css">
	.st0{fill:#2170FE}
</style>
<g>
	<path class="st0" d="M217.393,493.996l-1.911-5.521h-9.315l-1.953,5.521h-8.502l11.676-30.648h6.834l11.715,30.648H217.393z
		M211.006,474.177c-0.055,0.166-0.129,0.425-0.223,0.779c-0.096,0.354-0.17,0.625-0.225,0.813l-2.563,7.503h5.817l-2.44-7.503
		c-0.055-0.188-0.116-0.46-0.184-0.813C211.121,474.602,211.061,474.343,211.006,474.177z"/>
	<path class="st0" d="M226.952,493.996v-30.472h8.257v27.994c0,0.73-0.324,1.327-0.976,1.787s-1.41,0.69-2.278,0.69H226.952z"/>
	<path class="st0" d="M238.871,493.996v-30.472h8.258v27.994c0,0.73-0.326,1.327-0.977,1.787s-1.41,0.69-2.277,0.69H238.871z"/>
</g>
</svg>