<?xml version="1.0" encoding="utf-8"?>
<!-- Generator: Adobe Illustrator 16.0.0, SVG Export Plug-In . SVG Version: 6.00 Build 0)  -->
<!DOCTYPE svg PUBLIC "-//W3C//DTD SVG 1.1//EN" "http://www.w3.org/Graphics/SVG/1.1/DTD/svg11.dtd">
<svg version="1.1" id="레이어_1" xmlns="http://www.w3.org/2000/svg" xmlns:xlink="http://www.w3.org/1999/xlink" x="0px"
	 y="0px" width="33.66px" height="31.11px" viewBox="0 0 33.66 31.11" enable-background="new 0 0 33.66 31.11"
	 xml:space="preserve">
<path fill="#FFFFFF" d="M33.507,22.732c-0.211-0.337-1.668-1.038-1.668-1.038c-0.576-0.284-4.807-2.356-5.602-2.642
	c-0.681-0.244-1.452-0.521-2.143,0.507c-0.526,0.776-2.063,2.572-2.563,3.138c-0.352,0.399-0.673,0.53-1.451,0.142
	c-0.131-0.064-3.898-1.675-6.498-3.975c-2.307-2.036-3.903-4.552-4.482-5.541c-0.358-0.603-0.123-0.883,0.316-1.324
	c0.271-0.265,1.463-1.708,1.558-1.847c0.191-0.29,0.53-0.985,0.53-0.985c0.344-0.68,0.13-1.271-0.063-1.66
	c-0.137-0.269-2.306-5.494-2.513-5.985C8.31,0.046,7.649-0.032,7.019,0.004C6.71,0.026,3.841,0.049,2.925,1.041l-0.16,0.171
	C1.866,2.163-0.002,4.138-0.002,7.961c0,0.88,0.14,1.806,0.431,2.829c0.533,1.843,1.576,3.86,2.955,5.703
	c0.031,0.04,2.131,2.957,3.182,4.167c3.322,3.824,7.075,6.65,10.86,8.13c4.837,1.89,6.902,2.322,8.073,2.322
	c0.515,0,1.593-0.261,1.828-0.282c1.477-0.133,4.99-1.964,5.729-4.021C33.753,24.867,33.767,23.168,33.507,22.732z"/>
</svg>
