<?xml version="1.0" encoding="utf-8"?>
<!-- Generator: Adobe Illustrator 16.0.0, SVG Export Plug-In . SVG Version: 6.00 Build 0)  -->
<!DOCTYPE svg PUBLIC "-//W3C//DTD SVG 1.1//EN" "http://www.w3.org/Graphics/SVG/1.1/DTD/svg11.dtd">
<svg version="1.1" id="레이어_1" xmlns="http://www.w3.org/2000/svg" xmlns:xlink="http://www.w3.org/1999/xlink" x="0px"
	 y="0px" width="68px" height="68px" viewBox="0 0 68 68" enable-background="new 0 0 68 68" xml:space="preserve">
<g>
	<g>
		<g>
			<path fill-rule="evenodd" clip-rule="evenodd" fill="#E74337" d="M15,0h38c8.284,0,15,6.716,15,15v38c0,8.284-6.716,15-15,15H15
				C6.715,68,0,61.284,0,53V15C0,6.716,6.715,0,15,0z"/>
		</g>
	</g>
	<g>
		<polygon fill="#FFFFFF" points="28.114,35.604 30.031,35.604 29.085,33.461 		"/>
		<path fill="#FFFFFF" d="M55.8,29.994h-2.443c-1.88-10.105-10.743-17.758-21.396-17.758c-12.021,0-21.764,9.745-21.764,21.764
			s9.742,21.764,21.764,21.764c10.652,0,19.516-7.652,21.396-17.758H55.8c2.211,0,4.003-1.794,4.003-4.006
			C59.803,31.787,58.011,29.994,55.8,29.994z M23.365,37.492c-0.75,0.537-1.609,0.805-2.571,0.805c-1.167,0-2.188-0.418-3.063-1.252
			c-0.874-0.834-1.311-1.843-1.311-3.02c0-1.18,0.437-2.188,1.311-3.021c0.875-0.834,1.896-1.251,3.063-1.251
			c0.962,0,1.821,0.266,2.571,0.803c0.754,0.538,1.26,1.244,1.517,2.126h-2.24c-0.136-0.338-0.775-1.069-1.848-1.069
			c-1.352,0-2.112,1.356-2.112,2.413c0,1.27,0.92,2.529,2.152,2.529c1.169,0,1.615-0.801,1.808-1.168h2.24
			C24.625,36.256,24.119,36.955,23.365,37.492z M31.238,38.297l-0.489-1.258h-3.35l-0.488,1.258h-2.029l3.679-8.201h1.028
			l3.679,8.201H31.238z M39.902,31.336h-4.106v1.941h3.419v1.436h-3.419v3.584h-2.028v-8.594h6.135V31.336z M47.217,38.297H40.98
			v-8.201h6.136v1.436h-4.304v1.941h3.615v1.437h-3.615v1.948h4.404V38.297z"/>
	</g>
</g>
</svg>
