<?xml version="1.0" encoding="utf-8"?>
<!-- Generator: Adobe Illustrator 16.0.0, SVG Export Plug-In . SVG Version: 6.00 Build 0)  -->
<!DOCTYPE svg PUBLIC "-//W3C//DTD SVG 1.1//EN" "http://www.w3.org/Graphics/SVG/1.1/DTD/svg11.dtd">
<svg version="1.1" id="레이어_1" xmlns="http://www.w3.org/2000/svg" xmlns:xlink="http://www.w3.org/1999/xlink" x="0px"
	 y="0px" width="68px" height="68px" viewBox="0 0 68 68" enable-background="new 0 0 68 68" xml:space="preserve">
<g>
	<path fill-rule="evenodd" clip-rule="evenodd" fill="#00C73C" d="M15,0h38c8.284,0,15,6.716,15,15v38c0,8.284-6.716,15-15,15H15
		C6.715,68,0,61.284,0,53V15C0,6.716,6.715,0,15,0z"/>
	<g>
		<g>
			<path fill="#FFFFFF" d="M19.482,53.669c0.142-13.432-0.159-26.879,0.171-40.303c3.119,0.093,6.228,0.056,9.338,0.093
				c-0.112,5.012,0.055,10.041-0.121,15.059c4.563-4.59,12.624-4.396,17.134,0.162c6.227,5.996,6.013,17.409-0.657,22.993
				c-4.566,3.959-12.466,4.188-16.414-0.781c0.021,0.712,0.038,2.136,0.059,2.845C25.825,53.765,22.647,53.797,19.482,53.669z
				 M32.295,34.172c-4.733,1.678-4.959,9.329-0.355,11.341c3.823,2.033,9.104-1.08,8.736-5.529
				C41.09,35.662,36.196,32.344,32.295,34.172z"/>
		</g>
	</g>
</g>
</svg>
