<?xml version="1.0" encoding="utf-8"?>
<!-- Generator: Adobe Illustrator 16.0.0, SVG Export Plug-In . SVG Version: 6.00 Build 0)  -->
<!DOCTYPE svg PUBLIC "-//W3C//DTD SVG 1.1//EN" "http://www.w3.org/Graphics/SVG/1.1/DTD/svg11.dtd">
<svg version="1.1" id="레이어_1" xmlns="http://www.w3.org/2000/svg" xmlns:xlink="http://www.w3.org/1999/xlink" x="0px"
	 y="0px" width="28px" height="26px" viewBox="0 0 28 26" enable-background="new 0 0 28 26" xml:space="preserve">
<g>
	<path fill="#777777" d="M24,2.002c1.103,0,2,0.897,2,2v11.996c0,1.103-0.897,2-2,2h-6.042h-1.074l-0.594,0.896l-2.323,3.509
		l-2.386-3.525l-0.595-0.879H9.925H4c-1.103,0-2-0.897-2-2V4.002c0-1.103,0.897-2,2-2H24 M24,0.002H4c-2.209,0-4,1.791-4,4v11.996
		c0,2.209,1.791,4,4,4h5.925l4.061,6l3.973-6H24c2.209,0,4-1.791,4-4V4.002C28,1.793,26.209,0.002,24,0.002L24,0.002z"/>
</g>
</svg>
