<?xml version="1.0" encoding="utf-8"?>
<!-- Generator: Adobe Illustrator 16.0.0, SVG Export Plug-In . SVG Version: 6.00 Build 0)  -->
<!DOCTYPE svg PUBLIC "-//W3C//DTD SVG 1.1//EN" "http://www.w3.org/Graphics/SVG/1.1/DTD/svg11.dtd">
<svg version="1.1" id="레이어_1" xmlns="http://www.w3.org/2000/svg" xmlns:xlink="http://www.w3.org/1999/xlink" x="0px"
	 y="0px" width="68px" height="68px" viewBox="0 0 68 68" enable-background="new 0 0 68 68" xml:space="preserve">
<g>
	<path fill-rule="evenodd" clip-rule="evenodd" fill="#00C73C" d="M15,0h38c8.284,0,15,6.716,15,15v38c0,8.284-6.716,15-15,15H15
		C6.715,68,0,61.284,0,53V15C0,6.716,6.715,0,15,0z"/>
	<g>
		<g>
			<path fill="#FFFFFF" d="M34.001,21.532c-1.446,0-2.849,0.181-4.19,0.521v-2.877v-0.347c0-0.073-0.008-0.146-0.022-0.219
				c-0.267-3.54-3.023-6.159-6.387-6.159s-6.12,2.619-6.387,6.159C17,18.682,16.992,30.713,16.992,30.713v7.828
				c0,0.056,0.002,0.109,0.002,0.164c0.088,9.317,7.667,16.845,17.007,16.845c9.392,0,17.007-7.615,17.007-17.009
				S43.393,21.532,34.001,21.532z M34.001,52.937c-7.951,0-14.396-6.445-14.396-14.396V18.954c0-2.117,1.7-3.832,3.796-3.832
				c2.097,0,3.797,1.715,3.797,3.832L27.191,38.37c0,3.764,3.044,6.988,6.81,6.988c3.764,0,6.815-3.053,6.815-6.817
				s-3.052-6.817-6.815-6.817c-1.581,0-3.033,0.539-4.19,1.44v-2.917c1.26-0.637,2.683-0.998,4.19-0.998
				c5.132,0,9.291,4.16,9.291,9.292s-4.159,9.292-9.291,9.292c-5.134,0-9.293-4.16-9.293-9.292V18.829
				c0-0.64-0.585-1.246-1.307-1.246s-1.307,0.606-1.307,1.246v19.712c0,0.3,0.015,0.595,0.037,0.888
				c0.455,6.159,5.593,11.018,11.869,11.018c6.573,0,11.904-5.331,11.904-11.905c0-6.575-5.331-11.905-11.904-11.905
				c-1.475,0-2.886,0.27-4.19,0.76v-2.63c1.327-0.403,2.732-0.621,4.19-0.621c7.949,0,14.394,6.445,14.394,14.396
				C48.395,46.491,41.95,52.937,34.001,52.937z M29.811,38.541c0-2.313,1.877-4.189,4.19-4.189c2.312,0,4.188,1.876,4.188,4.189
				s-1.877,4.188-4.188,4.188C31.688,42.729,29.811,40.854,29.811,38.541z"/>
		</g>
	</g>
</g>
</svg>
