<?xml version="1.0" encoding="utf-8"?>
<!-- Generator: Adobe Illustrator 16.0.0, SVG Export Plug-In . SVG Version: 6.00 Build 0)  -->
<!DOCTYPE svg PUBLIC "-//W3C//DTD SVG 1.1//EN" "http://www.w3.org/Graphics/SVG/1.1/DTD/svg11.dtd">
<svg version="1.1" id="레이어_1" xmlns="http://www.w3.org/2000/svg" xmlns:xlink="http://www.w3.org/1999/xlink" x="0px"
	 y="0px" width="25.99px" height="25.99px" viewBox="0 0 25.99 25.99" enable-background="new 0 0 25.99 25.99"
	 xml:space="preserve">
<g>
	<path fill="#FFFFFF" d="M24.99,25.992h-7.996c-0.553,0-1-0.447-1-1s0.447-1,1-1h6.996l0.002-6.998c0-0.553,0.447-1,1-1l0,0
		c0.553,0,1,0.448,1,1l-0.002,7.998C25.99,25.545,25.543,25.992,24.99,25.992z"/>
	<path fill="#FFFFFF" d="M0.999,9.995c-0.553,0-1-0.447-1-1V0.998c0-0.553,0.447-1,1-1h7.998c0.553,0,1,0.447,1,1s-0.447,1-1,1
		H1.998v6.997C1.998,9.548,1.55,9.995,0.999,9.995z"/>
	<path fill="#FFFFFF" d="M23.938,24.992c-0.256,0-0.51-0.098-0.705-0.293L0.599,2.064c-0.391-0.391-0.391-1.023,0-1.414
		s1.023-0.391,1.414,0l22.631,22.635c0.391,0.391,0.391,1.023,0,1.414C24.449,24.895,24.193,24.992,23.938,24.992z"/>
</g>
</svg>
