<?xml version="1.0" encoding="utf-8"?>
<!-- Generator: Adobe Illustrator 16.0.0, SVG Export Plug-In . SVG Version: 6.00 Build 0)  -->
<!DOCTYPE svg PUBLIC "-//W3C//DTD SVG 1.1//EN" "http://www.w3.org/Graphics/SVG/1.1/DTD/svg11.dtd">
<svg version="1.1" id="레이어_1" xmlns="http://www.w3.org/2000/svg" xmlns:xlink="http://www.w3.org/1999/xlink" x="0px"
	 y="0px" width="40.17px" height="40.17px" viewBox="0 0 40.17 40.17" enable-background="new 0 0 40.17 40.17"
	 xml:space="preserve" fill="#2170fe">
<g>
	<path d="M20.085,2.002c9.971,0,18.083,8.112,18.083,18.083c0,9.971-8.112,18.083-18.083,18.083
		c-9.971,0-18.083-8.112-18.083-18.083C2.002,10.114,10.114,2.002,20.085,2.002 M20.085,0.002c-11.092,0-20.083,8.991-20.083,20.083
		c0,11.091,8.991,20.083,20.083,20.083s20.083-8.992,20.083-20.083C40.168,8.993,31.177,0.002,20.085,0.002L20.085,0.002z" />
	<path d="M20.085,8.089c-0.552,0-1-0.448-1-1V2.002c0-0.552,0.448-1,1-1s1,0.448,1,1v5.087C21.085,7.641,20.637,8.089,20.085,8.089z
		"/>
	<path d="M20.085,39.168c-0.552,0-1-0.447-1-1V33.08c0-0.553,0.448-1,1-1s1,0.447,1,1v5.088
		C21.085,38.721,20.637,39.168,20.085,39.168z"/>
	<path d="M7.089,21.085H2.002c-0.552,0-1-0.448-1-1s0.448-1,1-1h5.087c0.552,0,1,0.448,1,1S7.641,21.085,7.089,21.085z"/>
	<path d="M38.168,21.085h-5.087c-0.553,0-1-0.448-1-1s0.447-1,1-1h5.087c0.553,0,1,0.448,1,1S38.721,21.085,38.168,21.085z"/>
	<g>
		<circle cx="20.085" cy="20.085" r="2.084"/>
	</g>
</g>
</svg>
