<?xml version="1.0" encoding="utf-8"?>
<!-- Generator: Adobe Illustrator 16.0.0, SVG Export Plug-In . SVG Version: 6.00 Build 0)  -->
<!DOCTYPE svg PUBLIC "-//W3C//DTD SVG 1.1//EN" "http://www.w3.org/Graphics/SVG/1.1/DTD/svg11.dtd">
<svg version="1.1" id="레이어_1" xmlns="http://www.w3.org/2000/svg" xmlns:xlink="http://www.w3.org/1999/xlink" x="0px"
	 y="0px" width="28.13px" height="28.13px" viewBox="0 0 28.13 28.13" enable-background="new 0 0 28.13 28.13"
	 xml:space="preserve">
<g>
	<path fill="#777777" d="M23.784,28.132H0.812c-0.449,0-0.813-0.364-0.813-0.813V4.346c0-0.449,0.364-0.813,0.813-0.813h14.607
		c0.449,0,0.813,0.364,0.813,0.813c0,0.448-0.364,0.813-0.813,0.813H1.624v21.347h21.347V12.71c0-0.449,0.365-0.813,0.813-0.813
		c0.449,0,0.813,0.364,0.813,0.813v14.608C24.598,27.768,24.233,28.132,23.784,28.132z"/>
	<path fill="#777777" d="M27.318,10.461c-0.448,0-0.813-0.364-0.813-0.813V1.625l-8.023-0.001c-0.448,0-0.813-0.364-0.813-0.813
		c0-0.449,0.364-0.813,0.813-0.813l0,0l8.836,0.001c0.449,0,0.813,0.364,0.813,0.813v8.836
		C28.132,10.097,27.768,10.461,27.318,10.461z"/>
	<path fill="#777777" d="M12.518,16.482c-0.207,0-0.416-0.079-0.574-0.238c-0.318-0.317-0.318-0.832,0-1.15L25.639,1.4
		c0.317-0.318,0.832-0.318,1.149,0c0.317,0.317,0.317,0.832,0,1.149L13.093,16.244C12.935,16.403,12.726,16.482,12.518,16.482z"/>
</g>
</svg>
