<?xml version="1.0" encoding="utf-8"?>
<!-- Generator: Adobe Illustrator 16.0.0, SVG Export Plug-In . SVG Version: 6.00 Build 0)  -->
<!DOCTYPE svg PUBLIC "-//W3C//DTD SVG 1.1//EN" "http://www.w3.org/Graphics/SVG/1.1/DTD/svg11.dtd">
<svg version="1.1" id="레이어_1" xmlns="http://www.w3.org/2000/svg" xmlns:xlink="http://www.w3.org/1999/xlink" x="0px"
	 y="0px" width="43.07px" height="42.96px" viewBox="0 0 43.07 42.96" enable-background="new 0 0 43.07 42.96"
	 xml:space="preserve">
<g>
	<path d="M21.535,2.998c5.034,0,9.129,4.095,9.129,9.128c0,5.032-4.096,9.127-9.129,9.127c-5.033,0-9.127-4.095-9.127-9.127
		C12.408,7.093,16.501,2.998,21.535,2.998 M21.535-0.002c-6.697,0-12.127,5.429-12.127,12.128c0,6.698,5.43,12.127,12.127,12.127
		c6.7,0,12.129-5.429,12.129-12.127C33.664,5.427,28.234-0.002,21.535-0.002L21.535-0.002z"/>
	<path d="M43.072,42.962h-3c0-7.536-6.131-13.667-13.666-13.667h-9.741c-7.536,0-13.667,6.131-13.667,13.667h-3
		c0-9.19,7.477-16.667,16.667-16.667h9.741C35.596,26.295,43.072,33.771,43.072,42.962z"/>
</g>
</svg>
