<svg xmlns="http://www.w3.org/2000/svg" enable-background="new 0 0 960 560" version="1.1" xml:space="preserve" viewBox="759.91 371.86 44.05 44">
<style type="text/css">
	.st0{}
</style>
<g>
	<path fill-rule="evenodd" clip-rule="evenodd" d="M764.197,383.993C764.082,384.308,764.453,383.959,764.197,383.993
		L764.197,383.993z M803.805,387.782c-0.035-0.147-1.178-2.898-1.178-3.188c-0.022,0-0.598-1.096-0.741-1.503
		c-0.021-0.059-0.032-0.103-0.032-0.127c-0.727-0.582-1.172-0.979-2.182-1.045c-0.725-0.048-1.288,0.359-2.021,0.359
		c0,0.105-1.002,0.259-1.172,0.285c-0.683,0.105-0.481,0.109-1.145-0.457c0-0.525-1.323-1.43-1.715-1.802
		c0.021-0.482,0.154-0.957,0.279-1.42c0.272-1.001,0.676-2.106,0.479-3.157c-0.091-0.489-0.587-0.801-0.587-1.17
		c-0.174-0.116-0.771-0.494-0.771-0.601c-0.488-0.161-0.662-0.315-1.115-0.429c0-0.105-0.687-0.343-0.859-0.343
		c0-0.379-1.801-0.526-1.801-0.858c-0.346,0-0.815-0.253-1.265-0.281c-0.308-0.02-0.599,0.195-0.88,0.195
		c0,0.083-0.662,0.303-0.771,0.515c-0.27,0-0.602,0.462-0.602,0.687c-0.273,0.137-0.577,0.712-0.686,1.029
		c-0.072,0-0.514,0.728-0.514,0.858c-0.217,0.104-0.434,0.532-0.516,0.771c-0.14,0-0.6,0.101-0.6-0.086h-2.124
		c-0.395,0-0.654,0.153-0.794-0.257c-0.196-0.098-0.115-0.258-0.256-0.258c0-0.193-0.258-0.6-0.43-0.686
		c-0.442-1.296-1.89-3.194-3.541-2.931c-0.832,0.133-1.75,0.871-2.463,0.871c0,0.252-1.287,0.335-1.287,0.601
		c-1.184,0-2.317,1.297-2.477,2.624c-0.043,0.354,0.262,2.18,0.418,2.18c0,0.409,0.201,0.672,0.216,1.065
		c0.012,0.304,0.218,0.454,0.007,0.731c-0.147,0.194-0.394,0.268-0.566,0.434c-0.228,0.265-0.655,0.528-0.771,0.772
		c-0.313,0.206-0.151,0.294-0.43,0.429c-0.199,0.229-0.4,0.457-0.6,0.687c-0.323-0.015-0.643-0.074-0.954-0.16
		c-0.662-0.183-1.279-0.336-1.962-0.44c-0.474-0.16-1.049-0.328-1.545-0.172c0,0.021-1.032,0.515-1.115,0.515
		c-0.224,0.44-0.62,0.571-0.772,1.029c-0.082,0.248-0.636,1.716-0.772,1.716c-0.165,0.688-0.771,1.327-0.771,1.973
		c-0.643,0-0.102,2.184,0,2.488c0.162,0.081,0.292,0.273,0.408,0.445c0.181,0.266,0.279,0.292,0.535,0.498
		c0,0.069,0.73,0.515,0.857,0.515c0.117,0.227,0.697,0.601,0.945,0.601c0.128,0.265,0.596,0.528,0.943,0.601
		c-0.036,0.813-0.118,1.638-0.096,2.451c0.012,0.419,0.377,1.042-0.191,1.187c-0.251,0.063-0.803,0.432-0.914,0.651
		c-0.342,0.084-1.133,0.468-1.287,0.771c-0.571,0-1.459,1.099-1.459,1.716c-0.785,0,0.473,2.854,0.602,3.174
		c0,0.601,0.514,0.942,0.514,1.544c0.182,0,0.663,1.471,1.029,1.716c0,0.228,0.766,0.512,1.031,0.601
		c0,0.102,0.771,0.22,0.939,0.205c0.924-0.079,1.881-0.549,2.62-0.549c0.249,0,0.479-0.142,0.8-0.191
		c0.443-0.068,0.5,0.2,0.787,0.535c0.461,0.23,0.795,0.894,1.178,1.257c0.216,0.204,0.449,0.397,0.709,0.544
		c-0.068,0.337-0.146,0.672-0.23,1.005c-0.155,0.604-0.237,1.283-0.444,1.86c-0.245,0.682-0.337,2.066,0.245,2.368
		c0,0.414,0.592,0.743,0.943,1.008c0.195,0.146,0.859,0.304,0.859,0.45c0.756,0,1.303,0.771,2.059,0.771
		c0,0.218,1.513,0.73,1.832,0.736c0.45,0.008,1.011-0.035,1.428-0.222c0-0.095,0.539-0.429,0.686-0.429
		c0-0.165,0.221-0.251,0.344-0.343c0-0.292,0.259-0.34,0.342-0.687c0.146,0,0.543-0.687,0.602-0.857c0.1,0,0.69-1.005,0.801-1.201
		c0.276-0.497,1.56-0.196,2.115-0.172c0.505,0,0.956-0.086,1.459-0.086c0.086,0.27,0.455,0.911,0.686,1.03
		c0.13,0.507,0.771,0.986,0.771,1.458c0.201,0.097,0.116,0.257,0.258,0.257c0,0.275,0.255,0.34,0.44,0.534
		c0.587,0.614,1.371,0.979,2.157,0.853c0.832-0.134,1.752-0.872,2.463-0.872c0-0.25,1.287-0.336,1.287-0.6
		c0.525,0,1.321-0.419,1.717-0.944c0.684-0.342,0.768-1.664,0.714-2.315c-0.021-0.245-0.435-2.316-0.544-2.316
		c-0.102-0.315-0.31-0.995,0.055-1.206c0.353-0.205,0.684-0.853,1.061-0.853c-0.057,0,0.137-0.5,0,0
		c0.104-0.377,0.468-0.611,0.738-0.861c0.396-0.367,0.406-0.315,0.978-0.192c0.881,0.188,1.757,0.466,2.64,0.628
		c0.864,0.159,1.438-0.181,2.078-0.347c0.224-0.328,0.528-0.511,0.801-0.887c0.07-0.098,0.336-0.743,0.4-0.743
		c0-0.452,0.389-0.875,0.516-1.372c0.121,0,0.462-0.983,0.514-1.201c0.209,0,0.313-1.115,0.516-1.115
		c0.142-0.441,0.036-1.086-0.059-1.529c-0.079-0.373-0.853-1.559-1.4-1.559c-0.098-0.189-0.74-0.601-0.943-0.601
		c-0.155-0.306-0.712-0.567-1.029-0.743c-0.481-0.268-0.514-0.301-0.516-0.797c0-0.028,0.086-2.672,0.086-2.672
		s0.082-0.279,0.145-0.309c0.402-0.187,1.314-0.694,1.314-0.884c0.479-0.119,2.145-1.031,2.145-1.63
		c0.252-0.126,0.401-1.029,0.514-1.029C804.022,388.512,803.89,388.148,803.805,387.782z M800.654,389.141
		c-0.225,0.056-1.115,0.466-1.115,0.686c-0.213,0-0.74,0.281-0.859,0.516c-0.969,0.242-1.471,1.004-1.424,2.007
		c0.057,1.187,0.053,2.026,0.053,3.226c-0.275,0-0.278,1.887,0.428,1.887c0.119,0.233,0.581,0.508,0.857,0.601
		c0,0.155,0.655,0.447,0.859,0.515c0.191,0.396,0.83,0.381,1.029,0.772c0.314,0,0.689,0.366,0.771,0.686
		c-0.157,0-0.705,1.524-0.771,1.802c-0.283,0-0.41,1.63-0.773,1.63c0,0.583-0.498,0.437-0.94,0.312
		c-0.624-0.177-1.25-0.284-1.89-0.397c-0.94-0.301-2.145-0.825-2.83,0.086c-0.351,0.17-0.571,0.746-0.887,1.029
		c-0.415,0.372-0.951,0.775-1.259,1.158c-0.567,0.706-1.456,0.845-1.301,1.976c0.033,0.238,0.449,2.185,0.528,2.185
		c0,0.467,0.768,1.926-0.082,2.123c-0.564,0.132-0.854,0.536-1.375,0.536c0,0.121-1.311,0.601-1.545,0.601
		c0,0.204-0.682,0.257-0.857,0.257c0-0.059-0.22-0.343-0.258-0.343c0-0.407-0.565-0.816-0.686-1.287
		c-0.207-0.104-0.428-0.515-0.516-0.771c-0.101,0-0.6-0.888-0.6-1.029c0.039,0-0.771-0.717-0.771-0.687
		c-1.427,0.036-2.873,0.172-4.289-0.025c-1.191-0.166-1.529,0.216-2.145,1.141c-0.436,0.211-0.361,0.83-0.773,1.029
		c0,0.203-0.409,0.849-0.6,0.943c-0.308,0.466-0.375,1.02-0.943,0.83c-0.65-0.218-1.252-0.51-1.88-0.783
		c-0.486-0.211-1.855-0.544-1.788-1.115c0.065-0.556,0.265-1.092,0.352-1.647c0.141-0.915,0.988-2.339,0.4-3.202
		c-0.342-0.171-0.475-0.687-0.859-0.687c-0.199-0.229-0.4-0.457-0.6-0.687c-0.385,0-0.709-0.706-0.986-0.943
		c-0.597-0.512-1.019-1.751-2.006-1.566c-0.961,0.18-1.727,0.537-2.584,0.537c0,0.106-0.809,0.213-0.979,0.244
		c-0.267,0.05-0.456,0.165-0.748,0.054c-0.282-0.108-0.024-0.384-0.246-0.384c0-0.541-0.514-0.916-0.514-1.459
		c-0.138,0-0.549-1.288-0.648-1.533c-0.192-0.473-0.08-0.811,0.402-1.033c0.462-0.215,0.692-0.57,1.189-0.692
		c0.146-0.306,0.949-0.686,1.285-0.772c0.09-0.174,0.568-0.515,0.773-0.515c0.49-0.391,0.303-1.4,0.287-1.952
		c-0.019-0.664-0.031-1.328-0.031-1.993c0-0.715,0.554-1.917-0.231-2.518c-0.32-0.244-0.823-0.442-0.968-0.742
		c-0.236,0-0.82-0.358-0.945-0.601c-0.214,0-0.673-0.323-0.771-0.515c-0.217,0-0.572-0.209-0.686-0.429
		c-0.46-0.157-0.283-1.201,0.086-1.201c0-0.172,0.239-0.858,0.344-0.858c0.177-0.737,0.535-1.265,0.857-2.145
		c0.28-0.037,2.486,0.288,2.486,0.515c0.9,0,1.973,0.859,2.874,0.086c0.478-0.409,0.712-0.928,1.201-1.372
		c0.413-0.376,0.938-0.776,1.244-1.158c0.464-0.581,1.49-0.824,1.393-1.784c-0.025-0.251-0.449-2.29-0.534-2.29
		c0-0.354-0.65-1.823-0.163-2.059c0.474-0.229,0.9-0.601,1.448-0.601c0-0.298,1.287-0.29,1.287-0.601
		c0.102,0,0.857-0.208,0.857-0.344c0.626,0,0.434,0.396,0.859,0.601c0,0.217,0.278,0.736,0.514,0.858
		c0.107,0.311,0.386,0.96,0.686,1.115c0,0.353,0.41,0.614,0.516,1.029c0.137,0.201,0.857,0.54,0.857,0.601
		c1.314-0.074,2.367-0.105,3.603-0.062c0.457,0.017,0.915,0.032,1.373,0.049c0.447,0.017,0.587-0.162,0.944-0.417
		c0-0.248,0.372-0.83,0.6-0.943c0-0.244,0.373-0.83,0.6-0.943c0.077-0.301,0.418-0.98,0.688-1.115c0-0.469,0.399-0.646,0.854-0.517
		c0.425,0.12,0.48,0.345,0.861,0.345c0,0.188,1.569,0.772,1.801,0.772c0,0.309,0.652,0.169,0.784,0.41
		c0.169,0.306,0.146,0.333,0.022,0.748c-0.315,1.055-0.519,2.174-0.807,3.255c-0.28,1.048,0.354,1.262,0.858,1.892
		c0.293,0.365,0.803,0.746,1.201,1.101c0.637,0.565,1.068,1.808,1.974,2.03c0,0.336,4.007-0.855,4.554-0.748
		c0.479,0.095,0.851,1.367,0.851,1.606c0.256,0,0.292,1.286,0.6,1.286c0,0.474,0.353,0.778,0.258,1.373
		C801.093,388.793,800.761,388.915,800.654,389.141z M790.016,389.912c-0.123,0-0.546-0.904-0.6-1.115
		c-0.405-0.202-0.703-0.855-1.087-1.2c-0.411-0.371-0.837-0.708-1.144-1.115c-0.184,0-0.857-0.436-0.943-0.601
		c-0.799-0.196-1.409-0.772-2.145-0.772c0-0.295-2.669-0.348-3.088-0.343c0.813-0.01-0.209,0.181,0,0
		c-0.216,0.187-0.641,0.11-0.899,0.134c-0.33,0.029-0.658,0.179-0.971,0.278c-0.261,0.083-1.476,0.373-1.476,0.617
		c-0.979,0.24-1.622,1.079-2.402,1.772c-0.435,0.387-0.602,0.858-1.029,1.145c0,0.143-0.497,1.029-0.6,1.029
		c-0.101,0.303-0.618,1.801-0.688,1.801c0,0.909-0.373,1.961-0.244,3.09c0.128,1.124,0.518,2.184,0.846,3.172
		c0.122,0,0.549,0.902,0.6,1.115c0.401,0.27,0.514,0.668,0.943,1.029c0,0.384,0.604,0.604,0.815,0.858
		c0.261,0.313,0.688,0.645,1.073,0.771c0,0.27,0.943,0.366,0.943,0.601c0.521,0,1.047,0.338,1.554,0.482
		c1.139,0.324,2.62,0.482,3.778,0.204c0.738-0.177,1.48-0.44,2.131-0.601c0-0.107,1.047-0.562,1.201-0.601
		c0.087-0.181,0.659-0.601,0.857-0.601c0.354-0.444,0.742-0.723,1.201-1.115c0-0.243,0.588-0.935,0.771-1.029
		c0.064-0.186,0.46-1.029,0.6-1.029c0.199-0.776,0.602-1.215,0.602-1.973c0.301,0,0.296-2.54,0.244-2.952
		C790.725,391.876,790.342,390.868,790.016,389.912z M788.387,394.974c-0.228,0-0.201,1.63-0.6,1.63
		c0,0.299-0.258,0.387-0.258,0.686c-0.158,0.082-0.516,0.589-0.516,0.772c-0.761,0.609-1.393,1.582-2.272,1.759
		c-0.192,0.038-1.845,0.678-1.845,0.644c-0.539,0-0.853,0.172-1.387,0.041c-0.448-0.109-0.854-0.127-1.271-0.127
		c0-0.201-1.545-0.344-1.545-0.687c-0.228,0-0.727-0.282-0.9-0.515c-0.248-0.331-0.793-0.715-1.158-1.029
		c0-0.411-0.575-0.741-0.686-1.201c-0.243,0-0.47-1.061-0.516-1.258c-0.194-0.841-0.413-1.747-0.29-2.615
		c0.183-1.29,0.684-2.753,1.835-3.676c0-0.217,0.6-0.771,0.857-0.771c0.207-0.314,0.747-0.687,1.115-0.687
		c0-0.301,0.771-0.171,0.771-0.429c0.227,0,0.979-0.065,1.201-0.258c0.82-0.004,1.816-0.086,2.598,0.177
		c2.163,0.726,3.71,2.193,4.607,4.284c0.124,0.728,0.258,1.166,0.258,1.887C788.546,393.601,788.387,394.787,788.387,394.974z
		 M780.924,387.253C780.732,387.418,781.51,387.25,780.924,387.253L780.924,387.253z"/>
</g>
</svg>