<?xml version="1.0" encoding="utf-8"?>
<!-- Generator: Adobe Illustrator 16.0.0, SVG Export Plug-In . SVG Version: 6.00 Build 0)  -->
<!DOCTYPE svg PUBLIC "-//W3C//DTD SVG 1.1//EN" "http://www.w3.org/Graphics/SVG/1.1/DTD/svg11.dtd">
<svg version="1.1" id="레이어_1" xmlns="http://www.w3.org/2000/svg" xmlns:xlink="http://www.w3.org/1999/xlink" x="0px"
	 y="0px" width="39.63px" height="33.38px" viewBox="0 0 39.63 33.38" enable-background="new 0 0 39.63 33.38"
	 xml:space="preserve">
<g>
	<path fill="#2170FE" d="M19.815,11.135c4.177,0,7.576,3.398,7.576,7.576c0,4.176-3.398,7.574-7.576,7.574
		c-4.177,0-7.575-3.398-7.575-7.574C12.24,14.534,15.638,11.135,19.815,11.135 M19.815,8.835c-5.454,0-9.875,4.421-9.875,9.875
		c0,5.453,4.421,9.875,9.875,9.875c5.455,0,9.875-4.422,9.875-9.875C29.689,13.256,25.27,8.835,19.815,8.835L19.815,8.835z"/>
	<path fill="#2170FE" d="M25.096,2.302l1.27,3.383c0.336,0.897,1.193,1.492,2.152,1.492h7.109c0.938,0,1.701,0.763,1.701,1.7v20.5
		c0,0.938-0.764,1.701-1.701,1.701H4.002c-0.938,0-1.7-0.764-1.7-1.701v-20.5c0-0.938,0.763-1.7,1.7-1.7h7.109
		c0.959,0,1.816-0.595,2.153-1.492l1.269-3.383H25.096 M26.689,0.002H12.94l-1.828,4.875H4.002c-2.209,0-4,1.791-4,4v20.5
		c0,2.209,1.791,4,4,4h31.625c2.209,0,4-1.791,4-4v-20.5c0-2.209-1.791-4-4-4h-7.109L26.689,0.002L26.689,0.002z"/>
</g>
</svg>
