<?xml version="1.0" encoding="utf-8"?>
<!-- Generator: Adobe Illustrator 16.0.0, SVG Export Plug-In . SVG Version: 6.00 Build 0)  -->
<!DOCTYPE svg PUBLIC "-//W3C//DTD SVG 1.1//EN" "http://www.w3.org/Graphics/SVG/1.1/DTD/svg11.dtd">
<svg version="1.1" id="레이어_1" xmlns="http://www.w3.org/2000/svg" xmlns:xlink="http://www.w3.org/1999/xlink" x="0px"
	 y="0px" width="31.05px" height="41.09px" viewBox="0 0 31.05 41.09" enable-background="new 0 0 31.05 41.09"
	 xml:space="preserve">
<path fill="#FFFFFF" d="M2.198,2.2l26.654,18.344L2.198,38.888V2.2 M2.198,0.001c-0.351,0-0.702,0.084-1.023,0.252
	C0.451,0.634-0.002,1.384-0.002,2.2v36.688c0,0.818,0.453,1.567,1.177,1.947c0.321,0.17,0.673,0.254,1.023,0.254
	c0.438,0,0.873-0.131,1.247-0.389L30.1,22.356c0.596-0.41,0.953-1.088,0.953-1.813s-0.357-1.402-0.953-1.813L3.445,0.388
	C3.071,0.132,2.635,0.001,2.198,0.001L2.198,0.001z"/>
</svg>
