<?xml version="1.0" encoding="utf-8"?>
<!-- Generator: Adobe Illustrator 16.0.0, SVG Export Plug-In . SVG Version: 6.00 Build 0)  -->
<!DOCTYPE svg PUBLIC "-//W3C//DTD SVG 1.1//EN" "http://www.w3.org/Graphics/SVG/1.1/DTD/svg11.dtd">
<svg version="1.1" id="레이어_1" xmlns="http://www.w3.org/2000/svg" xmlns:xlink="http://www.w3.org/1999/xlink" x="0px"
	 y="0px" width="20.93px" height="20.93px" viewBox="0 0 20.93 20.93" enable-background="new 0 0 20.93 20.93"
	 xml:space="preserve">
<path fill-rule="evenodd" clip-rule="evenodd" fill="#FFFFFF" d="M16.291,0c0,3.096,0,6.177,0,9.289c1.555,0,3.088,0,4.639,0
	c0,3.893,0,7.752,0,11.635c-3.08,0-6.168,0-9.287,0c0-1.523,0-3.055,0-4.609c-0.789,0-1.544,0-2.333,0c0,1.537,0,3.066,0,4.615
	c-3.119,0-6.206,0-9.31,0c0-5.424,0-10.84,0-16.288c1.537,0,3.07,0,4.633,0c0-1.562,0-3.093,0-4.642C8.526,0,12.389,0,16.291,0z
	 M6.991,6.979c0,0.782,0,1.542,0,2.304c0.774,0,1.531,0,2.297,0c0-0.779,0-1.537,0-2.304C8.517,6.979,7.765,6.979,6.991,6.979z
	 M11.643,9.282c0.789,0,1.547,0,2.299,0c0-0.781,0-1.54,0-2.292c-0.777,0-1.535,0-2.299,0C11.643,7.761,11.643,8.513,11.643,9.282z
	 M9.292,11.645c-0.791,0-1.548,0-2.3,0c0,0.781,0,1.541,0,2.293c0.778,0,1.535,0,2.3,0C9.292,13.166,9.292,12.416,9.292,11.645z
	 M11.643,11.639c0,0.787,0,1.539,0,2.297c0.779,0,1.543,0,2.295,0c0-0.779,0-1.537,0-2.297
	C13.166,11.639,12.414,11.639,11.643,11.639z M9.284,4.62c0-0.771,0-1.528,0-2.284c-0.778,0-1.536,0-2.297,0
	c0,0.771,0,1.521,0,2.284C7.759,4.62,8.517,4.62,9.284,4.62z M13.945,2.335c-0.775,0-1.533,0-2.303,0c0,0.77,0,1.519,0,2.285
	c0.773,0,1.531,0,2.303,0C13.945,3.859,13.945,3.109,13.945,2.335z M2.342,6.982c0,0.786,0,1.543,0,2.304c0.773,0,1.522,0,2.28,0
	c0-0.776,0-1.535,0-2.304C3.855,6.982,3.105,6.982,2.342,6.982z M4.626,11.643c-0.785,0-1.533,0-2.289,0c0,0.775,0,1.535,0,2.295
	c0.774,0,1.532,0,2.289,0C4.626,13.164,4.626,12.412,4.626,11.643z M18.605,11.643c-0.77,0-1.525,0-2.297,0c0,0.773,0,1.533,0,2.297
	c0.775,0,1.531,0,2.297,0C18.605,13.176,18.605,12.434,18.605,11.643z M4.621,18.598c0-0.781,0-1.531,0-2.283
	c-0.773,0-1.529,0-2.283,0c0,0.771,0,1.521,0,2.283C3.105,18.598,3.854,18.598,4.621,18.598z M18.596,18.598
	c0-0.781,0-1.531,0-2.283c-0.773,0-1.529,0-2.283,0c0,0.771,0,1.521,0,2.283C17.08,18.598,17.828,18.598,18.596,18.598z"/>
</svg>
