<?xml version="1.0" encoding="utf-8"?>
<!-- Generator: Adobe Illustrator 16.0.0, SVG Export Plug-In . SVG Version: 6.00 Build 0)  -->
<!DOCTYPE svg PUBLIC "-//W3C//DTD SVG 1.1//EN" "http://www.w3.org/Graphics/SVG/1.1/DTD/svg11.dtd">
<svg version="1.1" id="레이어_1" xmlns="http://www.w3.org/2000/svg" xmlns:xlink="http://www.w3.org/1999/xlink" x="0px"
	 y="0px" width="41.79px" height="42.29px" viewBox="0 0 41.79 42.29" enable-background="new 0 0 41.79 42.29"
	 xml:space="preserve">
<g>
	<path fill="#FFFFFF" d="M17.749,3L17.749,3c8.133,0,14.75,6.618,14.751,14.75c0,8.133-6.616,14.75-14.749,14.75
		C9.617,32.5,3,25.883,3,17.75C3,9.617,9.616,3,17.749,3 M17.749,0C7.946,0,0,7.947,0,17.75C0,27.554,7.947,35.5,17.751,35.5
		c9.803,0,17.749-7.946,17.749-17.75C35.499,7.947,27.553,0,17.749,0L17.749,0z"/>
	<path fill="#FFFFFF" d="M40.29,42.29c-0.407,0-0.813-0.165-1.108-0.489L28.869,30.489c-0.559-0.613-0.515-1.562,0.098-2.119
		c0.612-0.559,1.56-0.516,2.119,0.098l10.313,11.312c0.559,0.612,0.515,1.562-0.098,2.119C41.013,42.161,40.651,42.29,40.29,42.29z"
		/>
</g>
</svg>
