<?xml version="1.0" encoding="utf-8"?>
<!-- Generator: Adobe Illustrator 16.0.0, SVG Export Plug-In . SVG Version: 6.00 Build 0)  -->
<!DOCTYPE svg PUBLIC "-//W3C//DTD SVG 1.1//EN" "http://www.w3.org/Graphics/SVG/1.1/DTD/svg11.dtd">
<svg version="1.1" id="레이어_1" xmlns="http://www.w3.org/2000/svg" xmlns:xlink="http://www.w3.org/1999/xlink" x="0px"
	 y="0px" width="40.17px" height="41.08px" viewBox="0 0 40.17 41.08" enable-background="new 0 0 40.17 41.08"
	 xml:space="preserve">
<g>
	<path fill="#FFFFFF" d="M20.085,7.044c7.467,0,13.542,6.075,13.542,13.542v8.338c0,0.535,0.144,1.062,0.416,1.523l0.877,1.488
		H5.243l0.886-1.507c0.271-0.461,0.414-0.985,0.414-1.521v-8.322C6.543,13.119,12.618,7.044,20.085,7.044 M20.085,4.044
		c-9.136,0-16.542,7.406-16.542,16.542v8.322L0,34.936h40.17l-3.543-6.012v-8.338C36.627,11.45,29.221,4.044,20.085,4.044
		L20.085,4.044z"/>
	<path fill="#FFFFFF" d="M20.085,41.078c-3.771,0-6.839-3.068-6.839-6.839c0-0.829,0.672-1.5,1.5-1.5s1.5,0.671,1.5,1.5
		c0,2.116,1.722,3.839,3.839,3.839s3.839-1.723,3.839-3.839c0-0.829,0.672-1.5,1.5-1.5s1.5,0.671,1.5,1.5
		C26.924,38.01,23.855,41.078,20.085,41.078z"/>
	<path fill="#FFFFFF" d="M23.054,3.002h-5.938c-0.828,0-1.5-0.671-1.5-1.5s0.672-1.5,1.5-1.5h5.938c0.828,0,1.5,0.671,1.5,1.5
		S23.882,3.002,23.054,3.002z"/>
</g>
</svg>
