<svg xmlns="http://www.w3.org/2000/svg" enable-background="new 0 0 960 560" version="1.1" xml:space="preserve" viewBox="345.14 448.76 60 60">
<style type="text/css">
	.circle{fill:#FAE100}
	.logo{fill:#2C1618}
</style>
<g>
	<path fill-rule="evenodd" clip-rule="evenodd" class="circle" d="M375.14,448.761c16.568,0,30,13.432,30,30s-13.432,30-30,30   s-29.999-13.432-29.999-30S358.571,448.761,375.14,448.761z"/>
	<path class="logo" d="M375.14,463.977c-8.854,0-16.033,5.665-16.033,12.651c0,4.478,2.955,8.402,7.402,10.65     c-0.241,0.912-1.296,4.896-1.452,5.508c-0.178,0.69,0.302,0.938,0.752,0.626c0.397-0.274,5.3-3.601,6.408-4.353     c0.948,0.138,1.923,0.22,2.923,0.22c8.854,0,16.034-5.664,16.034-12.651C391.174,469.642,383.994,463.977,375.14,463.977z"/>
</g>
</svg>