<?xml version="1.0" encoding="utf-8"?>
<!-- Generator: Adobe Illustrator 16.0.0, SVG Export Plug-In . SVG Version: 6.00 Build 0)  -->
<!DOCTYPE svg PUBLIC "-//W3C//DTD SVG 1.1//EN" "http://www.w3.org/Graphics/SVG/1.1/DTD/svg11.dtd">
<svg version="1.1" id="레이어_1" xmlns="http://www.w3.org/2000/svg" xmlns:xlink="http://www.w3.org/1999/xlink" x="0px"
	 y="0px" width="40.17px" height="38.3px" viewBox="0 0 40.17 38.3" enable-background="new 0 0 40.17 38.3" xml:space="preserve">
<path fill="#2170FE" d="M31.903,38.298c-0.153,0-0.308-0.037-0.448-0.111l-11.369-5.978L8.714,38.187
	c-0.321,0.172-0.715,0.144-1.013-0.073c-0.296-0.215-0.444-0.58-0.382-0.94l2.171-12.66l-9.199-8.967
	c-0.262-0.256-0.355-0.639-0.243-0.986c0.114-0.348,0.414-0.602,0.777-0.654l12.712-1.848l5.686-11.52
	c0.162-0.328,0.496-0.536,0.863-0.536l0,0c0.366,0,0.7,0.208,0.862,0.536l5.685,11.52l12.712,1.848
	c0.363,0.053,0.663,0.307,0.777,0.654c0.112,0.348,0.019,0.73-0.243,0.986l-9.199,8.967l2.171,12.66
	c0.063,0.36-0.086,0.726-0.382,0.94C32.301,38.235,32.103,38.298,31.903,38.298z M3.03,15.528l8.165,7.959
	c0.227,0.221,0.33,0.539,0.276,0.852L9.545,35.576l10.094-5.306c0.279-0.148,0.613-0.148,0.895,0l10.092,5.306l-1.927-11.237
	c-0.054-0.313,0.05-0.631,0.276-0.852l8.165-7.959l-11.283-1.64c-0.314-0.046-0.585-0.243-0.725-0.526L20.086,3.138l-5.048,10.225
	c-0.14,0.283-0.41,0.48-0.725,0.526L3.03,15.528z"/>
</svg>
